<svg width="284" height="288" viewBox="0 0 284 288" fill="none" xmlns="http://www.w3.org/2000/svg">
<g clip-path="url(#clip0_78_398)">
<path d="M223.155 70.7146C220.048 75.9503 214.396 83.9585 205.021 91.1323C197.146 97.162 189.499 100.406 184.168 102.182C183.391 105.964 184.664 109.814 187.503 112.182C190.905 115.036 195.016 114.417 195.646 114.322C201.284 112.196 208.985 108.602 216.994 102.478C224.642 96.6371 229.986 90.4593 233.495 85.7351C232.062 85.2102 230.106 84.2546 223.169 70.7146H223.155Z" fill="#ECFFF4" stroke="#2C6AFD" stroke-width="0.75" stroke-miterlimit="10"/>
<path d="M245.803 68.7227C245.803 68.7227 248.669 54.8059 240.446 50.9835C240.285 50.9162 240.124 50.8354 239.964 50.7816C239.897 50.7547 239.816 50.7277 239.736 50.7008C239.736 50.7008 239.897 49.974 240.098 48.8031C240.164 48.4127 240.231 47.9551 240.298 47.4706C240.392 46.7976 240.473 46.0574 240.539 45.2633C241.048 39.1528 240.446 30.1082 232.477 30.2832C232.477 30.2832 224.629 30.364 228.379 42.3965C228.379 42.3965 230.053 47.834 226.584 52.962C223.115 58.0899 225.566 69.6917 231.955 74.2948C231.365 73.4872 230.428 72.4105 229.075 71.4414C228.137 70.7685 227.24 70.3109 226.504 70.0148C225.794 69.9071 224.387 69.7994 223.57 70.6339C222.392 71.8721 223.289 74.3352 223.959 76.1656C225.084 79.2343 226.879 81.159 227.428 81.7243C229.664 84.0123 232.115 85.0756 233.615 85.5871C235.999 86.2735 237.968 85.6274 238.41 84.4969C238.49 84.3084 238.664 83.7432 238.222 82.801C238.222 82.801 246.258 89.1672 256.062 82.6126C256.062 82.6126 261.098 75.8291 273.259 77.9961C285.42 80.163 287.308 65.8828 275.817 66.0443C275.817 66.0443 265.357 67.148 264.553 64.3888C264.459 64.0523 264.352 63.0833 268.665 59.4762C275.991 53.3792 280.652 52.5313 281.268 48.7492C281.455 47.6187 281.321 45.8959 280.33 44.4827C279.272 42.9887 277.665 42.4907 277.196 42.3561C274.129 41.5216 271.049 42.4772 266.361 46.7976C261.915 50.9027 257.067 51.5622 255.687 49.5299C255.299 48.9511 255.232 48.1032 256.25 45.2633C259.196 37.0532 262.41 35.4785 262.41 31.1311C262.41 28.8296 261.5 25.3841 258.968 24.3477C256.625 23.3921 253.343 24.6842 251.013 27.6856L241.397 45.2633L240.7 46.515L240.312 49.2338L240.124 50.2432C240.124 50.2432 248.669 54.7117 245.816 68.7496L245.803 68.7227Z" fill="#ECFFF4" stroke="#2C6AFD" stroke-width="0.75" stroke-miterlimit="10"/>
<path d="M187.034 137.863C183.659 151.443 171.9 163.058 175.597 167.244C179.762 171.968 197.092 136.274 199.329 139.384C201.726 142.708 186.606 186.733 164.681 199.412C155.038 204.984 104.587 232.01 64.6618 203.072C44.599 188.537 31.8086 163.206 33.0006 138.011C35.2372 90.4458 87.1487 45.4113 133.194 58.1976C168.846 68.1036 193.811 110.662 187.034 137.863Z" fill="#4DDEFD" stroke="#2C6AFD" stroke-width="2" stroke-miterlimit="10"/>
<path d="M40.4739 111.173C39.3622 112.034 38.331 112.977 37.3265 113.959C31.8487 119.343 17.344 131.55 9.41535 118.912C-0.508916 103.097 -10.4198 60.2434 39.5096 51.7776C39.5096 51.7776 77.1307 46.0574 60.3626 79.0459C47.9472 103.501 42.4694 109.639 40.4739 111.173Z" fill="#2C6AFD" stroke="#16FD82" stroke-width="2" stroke-miterlimit="10"/>
<path d="M15.228 56.3671L21.7236 63.0698C21.7236 63.0698 38.6524 54.6444 44.465 42.2754C50.2776 29.9063 66.0145 25.2629 66.0145 25.2629C66.0145 25.2629 112.18 3.78204 129.953 14.2668C147.726 24.7515 174.07 22.6922 183.807 14.7782C183.807 14.7782 185.173 7.73904 179.186 4.9799C173.199 2.22077 167.052 8.412 167.052 8.412L165.003 10.902C165.003 10.902 140.882 10.6462 136.958 7.56407C133.033 4.48191 123.444 -3.08216 100.542 2.92065C77.6397 8.92345 46.849 18.3449 35.0631 37.4435C23.2772 56.5421 15.228 56.3671 15.228 56.3671Z" fill="#ECFFF4" stroke="#2C6AFD" stroke-miterlimit="10"/>
<path d="M142.77 55.4923C140.775 54.6713 136.971 53.0966 132.859 49.8394C129.578 47.2418 127.73 45.7747 126.698 43.3117C123.39 35.3842 132.002 25.2764 133.542 23.4594C137.641 18.6545 142.154 16.1107 144.337 15.0205C152.574 10.902 166.516 8.02168 179.789 15.2358C197.99 25.1283 199.476 45.5863 199.53 46.7573C199.624 49.5433 199.959 65.156 191.414 69.4629C190.101 70.1224 187.905 70.8627 173.226 66.7442C163.998 64.1466 156.913 61.2663 142.757 55.5058L142.77 55.4923Z" fill="#80FAFE" stroke="#16FD82" stroke-width="2" stroke-miterlimit="10"/>
<path d="M150.471 54.8866L156.297 40.3911L169.087 45.4652L160.395 62.5045L150.471 54.8866Z" fill="#ECFFF4" stroke="#2C6AFD" stroke-miterlimit="10"/>
<path d="M128.185 207.097C171.996 207.097 207.512 172.327 207.512 129.437C207.512 86.5469 171.996 51.7776 128.185 51.7776C84.3739 51.7776 48.8579 86.5469 48.8579 129.437C48.8579 172.327 84.3739 207.097 128.185 207.097Z" fill="#80FAFE" stroke="#2C6AFD" stroke-width="2" stroke-miterlimit="10"/>
<path d="M128.882 192.897C165.525 192.897 195.231 163.834 195.231 127.984C195.231 92.1327 165.525 63.0698 128.882 63.0698C92.2378 63.0698 62.5322 92.1327 62.5322 127.984C62.5322 163.834 92.2378 192.897 128.882 192.897Z" fill="#ECFFF4"/>
<path d="M181.945 65.8559L181.128 63.2852C182.681 62.7872 184.57 61.9123 184.677 60.553C184.985 56.5152 173.038 48.7089 164.454 44.4692C139.542 34.2537 134.708 43.729 134.667 43.8232L132.203 42.733C132.417 42.235 137.855 30.6601 165.565 42.0331C169.369 43.9174 187.918 53.4734 187.369 60.7683C187.195 63.0564 185.373 64.7657 181.958 65.8559H181.945Z" fill="#2C6AFD"/>
<path d="M96.6042 56.3671L93.189 46.4073L104.131 42.2754L107.895 51.8583L96.6042 56.3671Z" fill="#ECFFF4" stroke="#2C6AFD" stroke-width="2" stroke-miterlimit="10"/>
<path d="M114.323 31.185C114.846 38.7221 101.894 44.2404 99.5909 45.2229C96.7114 46.4477 84.7915 51.5353 79.6084 46.1381C78.1486 44.6173 77.1977 42.235 77.4789 39.9469C78.1084 34.8863 84.4567 32.2752 92.5193 28.9777C100.676 25.6398 107.707 22.7595 111.805 26.2051C114.069 28.1028 114.31 30.9696 114.323 31.185Z" fill="#16FD82" stroke="#2C6AFD" stroke-width="2" stroke-miterlimit="10"/>
<path d="M26.1433 62.4238C26.6388 67.6594 21.3754 73.1911 15.6833 73.5411C11.2904 73.8103 8.27694 70.8896 8.02247 70.6474C5.14296 67.7671 4.4867 63.4871 5.58493 59.9742C6.57602 56.8517 9.21445 53.5945 13.0984 52.8543C17.4378 52.0198 20.7861 54.7924 21.9379 55.748C23.0629 56.6902 25.8085 58.9513 26.1433 62.4238Z" fill="#16FD82" stroke="#2C6AFD" stroke-width="1.29" stroke-miterlimit="10"/>
<path d="M140.935 120.258C143.574 116.745 147.672 114.82 151.837 113.838C154.127 113.286 156.471 113.003 158.815 112.788C161.159 112.573 163.65 112.263 165.98 112.95C167.226 113.313 167.748 111.361 166.516 110.998C163.998 110.258 161.4 110.527 158.815 110.769C156.23 111.012 153.444 111.335 150.833 111.994C146.279 113.152 142.074 115.413 139.208 119.222C138.431 120.258 140.172 121.267 140.949 120.245L140.935 120.258Z" fill="#406AD0"/>
<path d="M120.297 122.573C116.439 119.787 110.64 118.966 106.06 120.096C103.595 120.702 101.292 122.223 99.1355 123.515C96.9792 124.807 94.9033 126.301 93.1756 128.172C92.305 129.128 93.7113 130.554 94.5952 129.599C96.1087 127.957 97.8765 126.651 99.765 125.48C101.653 124.309 103.89 122.829 106.113 122.169C110.265 120.931 115.756 121.792 119.252 124.323C120.31 125.076 121.314 123.327 120.27 122.573H120.297Z" fill="#406AD0"/>
<path d="M96.5105 124.794C96.5105 124.794 85.7425 100.056 103.006 94.5509C103.006 94.5509 118.221 91.536 118.047 120.702V122.371L109.877 120.702L102.658 122.667L97.5284 125.736L96.5105 124.78V124.794Z" fill="#406AD0"/>
<path d="M142.074 117.526C142.074 117.526 131.212 91.8052 145.583 85.2775C145.583 85.2775 160.971 79.6785 164.212 111.509H156.002L146.346 114.672L142.06 117.526H142.074Z" fill="#406AD0"/>
<path d="M180.458 121.55H139.275C137.263 121.55 135.632 123.189 135.632 125.211V126.463C135.632 128.485 137.263 130.124 139.275 130.124H180.458C182.47 130.124 184.101 128.485 184.101 126.463V125.211C184.101 123.189 182.47 121.55 180.458 121.55Z" fill="#80FAFE"/>
<path d="M131.049 121.64L104.594 127.519C102.63 127.956 101.389 129.91 101.824 131.884L102.122 133.238C102.556 135.212 104.501 136.458 106.465 136.022L132.92 130.143C134.885 129.706 136.125 127.752 135.691 125.778L135.393 124.424C134.958 122.45 133.014 121.203 131.049 121.64Z" fill="#4DDEFD"/>
<path d="M158.547 152.062C157.382 159.761 146.641 164.364 138.498 164.7C131.6 164.983 120.645 162.466 118.194 154.592C117.283 151.685 117.23 147.096 119.774 144.525C123.404 140.851 128.359 145.332 139.944 144.35C148.623 143.61 152.159 140.568 155.574 143.219C158.132 145.211 159.003 149.128 158.561 152.076L158.547 152.062Z" fill="#406AD0"/>
<path d="M121.114 157.944C121.114 157.944 129.565 152.412 139.569 159.169C139.569 159.169 141.551 159.868 140.239 158.294L137.708 156.194C137.708 156.194 147.578 153.381 152.721 158.563C152.721 158.563 146.801 163.22 138.15 163.031C129.498 162.843 124.435 161.107 121.114 157.944Z" fill="#FFA19F"/>
<path d="M120.109 147.594C120.109 147.594 124.127 143.852 132.069 146.153C140.011 148.455 146.734 144.875 146.734 144.875C146.734 144.875 153.11 142.789 156.177 146.153C156.177 146.153 137.225 154.256 120.122 147.594H120.109Z" fill="#FFFFF8"/>
<path d="M136.556 134.256C141.179 134.256 144.926 130.489 144.926 125.844C144.926 121.198 141.179 117.432 136.556 117.432C131.933 117.432 128.185 121.198 128.185 125.844C128.185 130.489 131.933 134.256 136.556 134.256Z" fill="#16FD82"/>
<path d="M104.399 95.1162C104.399 95.1162 87.4701 97.8349 97.3274 123.798L103.354 120.662L102.671 115.574L110.533 110.056L101.64 105.843L104.399 95.1162Z" fill="#ECFFF4"/>
<path d="M150.043 85.8293C150.043 85.8293 133.114 88.5481 142.971 114.511L148.998 111.375L148.315 106.287L156.177 100.769L147.284 96.5563L150.043 85.8293Z" fill="#ECFFF4"/>
<path d="M86.9344 250.085C85.0594 236.559 83.171 223.032 81.296 209.506C81.3763 209.25 83.0906 204.284 87.9657 203.18C91.4211 202.399 95.0506 203.893 97.1935 206.976C99.4168 221.35 101.64 235.711 103.863 250.085H86.9344Z" fill="#ECFFF4" stroke="#2C6AFD" stroke-width="0.75" stroke-miterlimit="10"/>
<path d="M88.4746 249.91C86.6264 249.91 84.3898 252.037 84.3764 254.029C84.363 255.631 85.8898 257.219 88.1398 258.148C90.122 258.955 93.3229 259.964 97.3676 260.032C101.948 260.126 105.537 258.982 107.627 258.148C108.243 257.784 110.479 256.29 110.533 254.365C110.6 252.118 108.256 249.762 105.055 249.897H88.4746V249.91Z" fill="#ECFFF4" stroke="#2C6AFD" stroke-width="0.75" stroke-miterlimit="10"/>
<path d="M61.6349 279.978C61.6349 279.978 57.2152 280.073 54.7911 276.425C53.8803 275.052 53.2509 273.155 53.2509 270.517C53.2509 260.893 68.1306 261.58 68.1306 261.58H86.4255V257.205C86.4255 257.205 95.6533 262.091 107.627 258.147C107.627 258.147 112.247 279.803 102.845 279.965C93.4435 280.126 76.5146 281.849 61.6349 279.965V279.978Z" fill="#16FD82" stroke="#2C6AFD" stroke-width="0.75" stroke-miterlimit="10"/>
<path d="M108.752 280.853C108.752 280.853 107.787 287.367 91.8899 287.367C75.9923 287.367 58.0322 289.09 53.2509 279.978L53.4919 273.128C53.4919 273.128 54.3357 279.79 64.6484 280.315C64.6484 280.315 89.3987 280.651 94.6622 280.315C99.9257 279.978 109.006 282.199 108.752 273.128V280.867V280.853Z" fill="#ECFFF4" stroke="#2C6AFD" stroke-width="0.75" stroke-miterlimit="10"/>
<path d="M175.128 244.419C169.637 231.929 164.132 219.439 158.641 206.949C158.44 206.774 154.369 203.463 149.654 205.105C146.306 206.276 144.002 209.466 143.801 213.221C149.453 226.613 155.105 239.991 160.744 253.383C165.538 250.395 170.333 247.407 175.128 244.419Z" fill="#ECFFF4" stroke="#2C6AFD" stroke-width="0.75" stroke-miterlimit="10"/>
<path d="M173.735 245.092C175.315 244.11 178.315 244.729 179.387 246.425C180.244 247.77 179.775 249.937 178.355 251.916C177.083 253.652 174.9 256.209 171.498 258.417C167.654 260.92 163.998 261.849 161.788 262.239C161.078 262.239 158.386 262.172 157.342 260.57C156.11 258.699 156.86 255.456 159.645 253.881L173.735 245.092Z" fill="#ECFFF4" stroke="#2C6AFD" stroke-width="0.75" stroke-miterlimit="10"/>
<path d="M212.32 256.425C212.32 256.425 216.124 254.164 216.271 249.789C216.325 248.147 215.869 246.196 214.477 243.961C209.427 235.792 197.146 244.244 197.146 244.244L181.597 253.921L179.306 250.207C179.306 250.207 174.03 259.251 161.788 262.239C161.788 262.239 169.221 283.087 177.297 278.242C185.373 273.41 200.668 265.9 212.307 256.411L212.32 256.425Z" fill="#16FD82" stroke="#2C6AFD" stroke-width="0.75" stroke-miterlimit="10"/>
<path d="M169.543 277.233C169.543 277.233 173.775 282.253 187.289 273.827C200.802 265.402 216.954 257.353 216.244 247.084L212.454 241.377C212.454 241.377 215.24 247.474 206.735 253.396C206.735 253.396 185.869 266.788 181.222 269.305C176.574 271.822 170.025 278.511 165.485 270.665L169.543 277.233Z" fill="#ECFFF4" stroke="#2C6AFD" stroke-width="0.75" stroke-miterlimit="10"/>
<path d="M136.783 196.693L92.1577 174.014C90.6309 170.474 91.0729 166.437 93.3497 163.529C96.0953 160.03 100.234 159.774 100.877 159.747C115.18 166.45 129.484 173.153 143.788 179.855C143.788 179.855 134.212 185.522 136.783 196.693Z" fill="#ECFFF4" stroke="#2C6AFD" stroke-width="0.75" stroke-miterlimit="10"/>
<path d="M159.364 193.947C159.364 193.947 165.029 206.962 157.77 212.413C157.636 212.521 157.489 212.615 157.342 212.723C157.275 212.763 157.208 212.803 157.141 212.857C157.141 212.857 157.449 213.53 157.878 214.634C158.025 215.011 158.186 215.428 158.346 215.899C158.574 216.532 158.802 217.245 159.029 218.012C160.784 223.88 162.056 232.858 154.235 234.338C154.235 234.338 146.547 235.886 147.739 223.342C147.739 223.342 148.248 217.676 143.801 213.382C139.355 209.089 139.355 197.231 144.659 191.39C144.243 192.305 143.56 193.543 142.435 194.782C141.658 195.63 140.882 196.262 140.212 196.72C139.542 196.975 138.176 197.379 137.225 196.72C135.819 195.764 136.194 193.153 136.462 191.228C136.931 187.985 138.297 185.737 138.712 185.077C140.44 182.372 142.609 180.811 143.975 180.003C146.159 178.832 148.221 179.061 148.891 180.071C148.998 180.232 149.293 180.757 149.051 181.767C149.051 181.767 155.601 173.866 166.543 178.24C166.543 178.24 172.864 183.826 184.329 179.182C195.793 174.539 200.575 188.119 189.284 190.353C189.284 190.353 178.824 191.444 178.597 194.31C178.57 194.66 178.677 195.63 183.632 198.254C192.057 202.696 196.784 202.548 198.164 206.128C198.579 207.204 198.807 208.914 198.124 210.488C197.387 212.171 195.927 212.992 195.485 213.221C192.659 214.674 189.445 214.378 183.967 211.134C178.771 208.052 173.896 208.402 172.958 210.677C172.69 211.323 172.797 212.157 174.391 214.742C178.958 222.158 182.427 223.032 183.324 227.286C183.793 229.533 183.619 233.1 181.356 234.648C179.266 236.061 175.784 235.496 172.891 233.046L159.86 217.851L158.922 216.774L157.985 214.203L157.596 213.261C157.596 213.261 165.029 207.124 159.351 193.974L159.364 193.947Z" fill="#ECFFF4" stroke="#2C6AFD" stroke-width="0.75" stroke-miterlimit="10"/>
</g>
<defs>
<clipPath id="clip0_78_398">
<rect width="284" height="288" fill="white"/>
</clipPath>
</defs>
</svg>
